<?xml version="1.0" encoding="UTF-8"?>
<svg width="12px" height="13px" viewBox="0 0 12 13" version="1.1" xmlns="http://www.w3.org/2000/svg" xmlns:xlink="http://www.w3.org/1999/xlink">
    <!-- Generator: Sketch 58 (84663) - https://sketch.com -->
    <title>Icons/Share</title>
    <desc>Created with Sketch.</desc>
    <defs>
        <path d="M15.5,14 C15.0043283,14.001294 14.5267966,14.1866048 14.16,14.52 L10.39,12.63 C10.5365905,12.2227909 10.5365905,11.7772091 10.39,11.37 L14.16,9.47999999 C14.8615176,10.1131329 15.9104437,10.1688678 16.6751051,9.61364071 C17.4397665,9.05841358 17.7114721,8.04375677 17.3265982,7.18070619 C16.9417243,6.31765561 16.0053106,5.84175472 15.0812742,6.03959553 C14.1572378,6.23743633 13.4977664,7.0550242 13.5,7.99999998 C13.5056415,8.21425123 13.5427032,8.42651395 13.61,8.62999999 L9.83999999,10.52 C9.03594012,9.81088584 7.81575741,9.8618898 7.07368136,10.6356328 C6.33160531,11.4093759 6.33160531,12.6306241 7.07368136,13.4043672 C7.81575741,14.1781102 9.03594012,14.2291142 9.83999999,13.52 L13.61,15.41 C13.5427032,15.613486 13.5056415,15.8257488 13.5,16.04 C13.5,17.1445695 14.3954305,18.04 15.5,18.04 C16.6045695,18.04 17.5,17.1445695 17.5,16.04 C17.5,14.9354305 16.6045695,14.04 15.5,14.04 L15.5,14 Z M15.5,6.99999998 C16.0522848,6.99999998 16.5,7.44771523 16.5,7.99999998 C16.5,8.55228474 16.0522848,8.99999998 15.5,8.99999998 C14.9477153,8.99999998 14.5,8.55228474 14.5,7.99999998 C14.5,7.44771523 14.9477153,6.99999998 15.5,6.99999998 Z M8.49999998,13 C7.94771523,13 7.49999998,12.5522848 7.49999998,12 C7.49999998,11.4477152 7.94771523,11 8.49999998,11 C9.05228474,11 9.49999998,11.4477152 9.49999998,12 C9.49999998,12.5522848 9.05228474,13 8.49999998,13 Z M15.5,17 C14.9477153,17 14.5,16.5522848 14.5,16 C14.5,15.4477153 14.9477153,15 15.5,15 C16.0522848,15 16.5,15.4477153 16.5,16 C16.5,16.5522848 16.0522848,17 15.5,17 Z" id="path-1"></path>
    </defs>
    <g id="Page-1" stroke="none" stroke-width="1" fill="none" fill-rule="evenodd">
        <g id="Desktop_News-Copy" transform="translate(-1025.000000, -1132.000000)">
            <g id="Icons/Share" transform="translate(1019.000000, 1126.000000)">
                <mask id="mask-2" fill="white">
                    <use xlink:href="#path-1"></use>
                </mask>
                <g fill-rule="nonzero"></g>
                <g id="Colors/7" mask="url(#mask-2)" fill="#000000" fill-rule="evenodd">
                    <rect id="Rectangle" x="0" y="0" width="24" height="24"></rect>
                </g>
            </g>
        </g>
    </g>
</svg>