<?xml version="1.0" encoding="UTF-8"?>
<svg width="15px" height="13px" viewBox="0 0 15 13" version="1.1" xmlns="http://www.w3.org/2000/svg" xmlns:xlink="http://www.w3.org/1999/xlink">
    <!-- Generator: Sketch 58 (84663) - https://sketch.com -->
    <title>Icons/Share</title>
    <desc>Created with Sketch.</desc>
    <defs>
        <path d="M12,18.22 L5.91999997,12.16 C4.62066094,10.8140604 4.63949921,8.67518827 5.96234373,7.35234374 C7.28518826,6.02949921 9.42406041,6.01066095 10.77,7.30999998 L12,8.51999999 L13.2,7.30999998 C14.5459396,6.01066095 16.6848117,6.02949921 18.0076563,7.35234374 C19.3305008,8.67518827 19.3493391,10.8140604 18.05,12.16 L12,18.22 Z M8.34999998,7.30999998 C7.70740844,7.3004358 7.08782599,7.54898922 6.62999998,7.99999998 C5.69082595,8.95046572 5.69082595,10.4795343 6.62999998,11.43 L12,16.81 L17.35,11.45 C17.9662832,10.8337169 18.2069692,9.93546459 17.9813939,9.09360615 C17.7558186,8.2517477 17.0982523,7.5941814 16.2563939,7.36860612 C15.4145354,7.14303083 14.5162831,7.38371682 13.9,7.99999998 L12,9.93999999 L10.07,7.99999998 C9.61155119,7.54994131 8.99238365,7.30155434 8.34999998,7.30999998 Z" id="path-1"></path>
    </defs>
    <g id="Page-1" stroke="none" stroke-width="1" fill="none" fill-rule="evenodd">
        <g id="Desktop_News-Copy" transform="translate(-982.000000, -1132.000000)">
            <g id="Icons/Heart" transform="translate(978.000000, 1126.000000)">
                <mask id="mask-2" fill="white">
                    <use xlink:href="#path-1"></use>
                </mask>
                <g fill-rule="nonzero"></g>
                <g id="Colors/7" mask="url(#mask-2)" fill="#000000" fill-rule="evenodd">
                    <rect id="Rectangle" x="0" y="0" width="24" height="24"></rect>
                </g>
            </g>
        </g>
    </g>
</svg>