<?xml version="1.0" encoding="UTF-8"?>
<svg width="14px" height="15px" viewBox="0 0 14 15" version="1.1" xmlns="http://www.w3.org/2000/svg" xmlns:xlink="http://www.w3.org/1999/xlink">
    <!-- Generator: Sketch 58 (84663) - https://sketch.com -->
    <title>Icons/Help</title>
    <desc>Created with Sketch.</desc>
    <defs>
        <path d="M12,4.99999997 C15.8659933,4.99999997 19,8.13400674 19,12 C19,15.8659933 15.8659933,19 12,19 C8.13400674,19 4.99999997,15.8659933 4.99999997,12 C4.99999997,8.13400674 8.13400674,4.99999997 12,4.99999997 Z M12,5.99999997 C8.68629149,5.99999997 5.99999997,8.68629149 5.99999997,12 C5.99999997,15.3137085 8.68629149,18 12,18 C13.5912989,18 15.1174224,17.367859 16.2426407,16.2426407 C17.367859,15.1174224 18,13.5912989 18,12 C18,8.68629149 15.3137085,5.99999997 12,5.99999997 Z M11.9,13.85 C12.0932489,13.835931 12.2835084,13.9037634 12.4242692,14.0369155 C12.56503,14.1700676 12.6433196,14.3562681 12.64,14.55 C12.639377,14.9312508 12.3337683,15.2418928 11.9525786,15.2487432 C11.5713889,15.2555935 11.254816,14.9561327 11.240495,14.5751505 C11.2261739,14.1941683 11.5193717,13.8717863 11.9,13.85 Z M13.3763571,8.89195583 C13.7583123,9.21279818 13.985195,9.68139155 14,10.18 C13.9685631,10.8173722 13.6038137,11.3910925 13.04,11.69 C12.5358333,12.075 12.3257639,12.2415278 12.2942535,12.6825463 L12.29,12.81 L12.29,13.08 L11.38,13.08 L11.38,12.73 C11.3960963,12.1119869 11.7334789,11.5471554 12.27,11.24 C12.72,10.93 13,10.71 13,10.24 C13,9.60999999 12.54,9.33999999 12,9.33999999 C11.7088029,9.31307629 11.4204124,9.41496883 11.2107617,9.6188493 C11.0310611,9.79360399 10.9246472,10.0282765 10.9097423,10.2755388 L10.91,10.4 L9.99999999,10.4 C9.97744024,9.87166603 10.1845316,9.35940285 10.5679225,8.99518153 C10.9513133,8.63096021 11.4735164,8.45039363 12,8.49999999 C12.4936801,8.42851906 12.9944019,8.57111348 13.3763571,8.89195583 Z" id="path-1"></path>
    </defs>
    <g id="Page-1" stroke="none" stroke-width="1" fill="none" fill-rule="evenodd">
        <g id="Desktop_Support" transform="translate(-930.000000, -370.000000)">
            <g id="Icons/Help" transform="translate(925.000000, 365.500000)">
                <mask id="mask-2" fill="white">
                    <use xlink:href="#path-1"></use>
                </mask>
                <g id="Combined-Shape" fill-rule="nonzero"></g>
                <g id="Colors/7" mask="url(#mask-2)" fill="#000000" fill-rule="evenodd">
                    <rect id="Rectangle" x="0" y="0" width="24" height="24"></rect>
                </g>
            </g>
        </g>
    </g>
</svg>